<svg xmlns="http://www.w3.org/2000/svg" version="1.1" xmlns:xlink="http://www.w3.org/1999/xlink" xmlns:svgjs="http://svgjs.dev/svgjs" width="1000" height="1125" viewBox="0 0 1000 1125"><g transform="matrix(1,0,0,1,1.7053025658242404e-13,0)"><svg viewBox="0 0 320 360" data-background-color="#080808" preserveAspectRatio="xMidYMid meet" height="1125" width="1000" xmlns="http://www.w3.org/2000/svg" xmlns:xlink="http://www.w3.org/1999/xlink"><g id="tight-bounds" transform="matrix(1,0,0,1,-5.684341886080802e-14,0)"><svg viewBox="0 0 320 360" height="360" width="320"><g><svg></svg></g><g><svg viewBox="0 0 320 360" height="360" width="320"><g><path d="M85.508 32.884c0-1.117 0.558-2.233 1.675-2.233 1.117 0 2.233 0.558 2.234 2.233 0.558 0 1.675 0 2.233-0.558 2.233 0 4.467-0.558 6.141 0 1.675 0.558 2.792 0.558 4.467 1.117 1.675 0.558 2.792 0 3.908-0.559 2.233-0.558 3.908-1.675 6.141-2.233 1.117-0.558 1.675-0.558 2.792-0.558 1.117-0.558 2.233-0.558 3.908-1.117 2.792-0.558 5.583-1.117 7.817-2.233 2.233-1.117 4.467-1.117 6.699-1.675 1.117 0 1.675-0.558 2.792-1.117 0.558 0 0.558-0.558 1.116-1.116 1.117-0.558 1.675-1.117 2.792-0.559 0.558 0.558 1.675 0.558 2.233 0h0.559c3.35 0 6.7-0.558 10.608 0 0.558 0 1.117 0 1.116 0 1.675-1.117 3.908-1.117 6.142-1.116 0.558 0 1.675 0 2.233 0h0.558c2.233 0 4.467 0 6.142 0.558 1.675 0 2.792 0.558 4.466 1.117 1.675 0 2.792 0 4.467 0.558 1.117 0 2.233 0 3.35 0 0.558 0 1.117 0 1.116 0 2.233 0.558 4.467 0.558 6.7 0.558 1.675 0.558 3.35 1.117 5.583 1.117 0.558 0 1.117 0 1.675 0 0.558 0 1.117 0.558 1.675 0.558l0.558 0.559c2.233 0 3.908 1.117 6.142 1.116 0.558 0 1.675 0 2.233 0.559 1.675 1.117 3.908 1.675 6.141 1.675 1.117 0 1.675 0.558 2.234 1.116 1.675 0.558 2.792 1.117 4.466 1.675 1.117 0.558 2.233 0 3.35 0.558 1.675 0.558 3.908 1.117 5.583 2.792 1.117 1.117 2.233 1.117 3.908 2.233 0.558 0 1.117 0.558 1.675 1.117 1.675 1.117 3.35 2.233 5.025 2.791 0.558 0 1.117 0.558 1.675 0.559 1.675 1.117 3.35 2.792 5.583 3.908 1.117 0.558 1.675 1.117 2.792 1.675h0.558c1.675 1.675 3.908 2.792 5.583 4.466 1.675 1.675 2.792 2.792 5.025 3.909 0 0 0 0 0 0.558 0.558 1.117 1.117 1.675 2.233 2.233 1.117 0.558 1.675 1.117 2.234 1.675 1.675 1.117 3.35 2.233 4.466 3.35 0.558 0.558 1.117 1.117 2.233 2.233 0.558 0.558 1.117 1.117 1.675 1.117 2.233 0.558 3.35 2.233 5.025 3.908 1.117 1.117 2.792 2.792 3.908 3.908 0.558 0.558 1.117 1.675 1.675 2.792 1.117 3.35 2.792 6.7 4.467 9.491 0 0 0 0.558 0.558 1.117v0.558c1.117 1.117 1.675 2.792 2.792 3.908 0.558 0.558 0.558 1.117 1.116 1.675 1.117 1.675 1.675 3.908 2.792 5.583 1.675 2.792 2.792 5.583 3.908 8.375v0.558c0.558 1.117 1.117 2.233 1.675 3.908 0 1.117 1.117 2.233 1.675 3.909 0.558 2.792 2.233 5.583 2.791 8.933 0 0.558 0.558 1.117 0.559 2.233 0.558 1.675 1.117 3.35 1.675 5.025 0 0.558 0.558 1.117 1.116 1.675 1.117 1.117 1.117 2.233 1.117 3.35-0.558 2.233 0 4.467 0.558 6.699 0 0.558 0 1.117 0 2.234 0.558 2.233 1.117 5.025 1.117 7.258 0 0.558 0 1.675 0 2.233 0 1.675 0.558 3.35 1.675 5.025 0 0.558 0.558 0.558 0.558 0.558 0.558 0.558 1.117 1.675 1.675 2.233 0.558 0.558 0.558 0.558 1.117 1.117 1.117 1.117 1.675 2.233 1.675 3.908 0 0.558-0.558 1.675-0.559 2.233 0 0.558 0 1.675 0.559 2.234 0.558 0.558 0.558 1.117 0.558 1.675 0 0.558-0.558 1.117-1.117 1.116v0c-0.558 1.675-2.792 2.233-3.35 3.908-0.558 2.233-1.117 4.467-1.674 6.7-0.558 1.675-0.558 2.792-0.559 4.467 0 1.675-0.558 2.792-0.558 4.466-0.558 2.233-1.117 4.467-1.675 6.7 0 1.117-0.558 2.233-0.558 3.35 0.558 0.558 1.117 1.117 1.675 1.116 1.117 1.117 2.233 2.233 3.349 3.35 0.558 0.558 0.558 1.117 0 1.117-0.558 0.558-1.117 0.558-1.674 0.558-0.558-0.558-1.675-1.117-2.234-1.116-0.558-0.558-1.675-1.117-2.791-0.559 0 1.117-0.558 2.233-0.559 2.792-0.558 1.117-1.117 2.792-1.116 3.908-0.558 2.233-1.675 3.908-2.233 6.142-1.117 2.792-2.233 5.025-3.35 7.258-0.558 1.117-1.117 2.233-1.675 3.35v0c0 1.675-1.675 3.35-2.234 5.024-1.117 2.233-2.233 4.467-3.349 7.258-0.558 1.117-1.117 2.233-1.675 2.792-1.117 2.792-2.233 5.025-3.909 7.258-1.117 1.675-2.233 2.792-3.349 3.35-1.117 1.117-2.233 2.233-3.35 3.35-0.558 0.558-1.117 1.117-1.675 1.675-0.558 0.558-0.558 0.558-1.117 1.116-1.117 1.675-2.792 2.792-3.908 4.467-1.117 1.117-1.675 2.233-3.35 3.35-1.117 1.117-2.233 2.792-3.908 3.35-0.558 0.558-1.117 1.675-1.675 2.233-0.558 0.558-1.117 1.675-1.675 2.233 0 1.117 0.558 2.233 0.558 2.792 0 1.675-1.675 2.233-2.791 1.116-1.675-1.117-1.675-1.117-3.35 0-1.675 1.117-3.35 2.792-5.583 3.35-0.558 0-0.558 0.558-1.117 0.559-1.117 0.558-1.675 1.675-2.792 2.233-1.117 1.117-2.792 1.675-3.908 2.791-0.558 0.558-1.117 0.558-1.675 1.117-1.675 1.117-3.35 1.675-5.024 3.35-0.558 0.558-1.117 0.558-1.675 1.117 0 0.558 0 0.558 0 1.116 0 1.117-1.117 2.233-2.792 1.675-1.675-0.558-2.792 0-4.466 0-1.675 0.558-3.35 1.675-5.025 2.233-0.558 0-1.117 0.558-1.675 1.117-1.675 1.117-3.35 1.675-5.025 2.233-1.117 0-2.233 1.117-3.35 1.117-0.558 0-1.117 0.558-1.675 0.558h-0.558c-2.233 1.675-4.467 2.792-6.7 4.467-0.558 0-0.558 0.558-1.117 1.116-0.558 1.117-1.117 1.675-2.233 1.675-2.792 0-3.908 2.233-3.35 4.467 0 0.558 0.558 1.117 0.559 1.675 0.558 1.117 0 2.233-0.559 2.791-0.558 0.558-2.233 0.558-2.791-0.558-1.117-1.117-1.675-2.233-2.234-3.908-0.558-1.117-1.675-2.233-2.791-2.792-1.117-0.558-2.233-0.558-3.35 0-0.558 0-0.558 0.558-1.117 0.558-1.117 1.117-2.792 1.675-4.466 1.117-0.558 0-1.675 0-1.675 0.558-0.558 0.558-0.558 1.675 0 2.234 1.117 1.117 0.558 2.233 0.558 3.908 0 2.233-1.675 3.35-3.908 2.233-0.558-0.558-1.117-0.558-1.675-1.117-0.558 0-0.558-0.558-0.558-1.116-0.558-0.558-0.558-1.675-1.117-2.792-1.117 0.558-2.233 0.558-3.35 1.117-0.558 0-1.117 0.558-1.675 0.558-1.675 0-2.233 0-2.791-1.675-0.558-1.675-1.675-1.675-2.792-2.233-2.233-0.558-5.025-0.558-7.258-1.675h-0.558c-2.233-1.675-4.467-1.675-7.258-1.675-1.675 0-3.35 0.558-5.025 0.558-1.675 0-2.792 0.558-3.908 1.675-0.558 0.558-1.117 1.117-1.675 1.117-0.558-0.558-0.558-1.117-1.117-1.675v-0.558c0-0.558-0.558-1.117-1.116-0.559-1.117 0.558-2.233-0.558-3.35-1.116-0.558-0.558-1.675-1.675-1.675-2.792-0.558-0.558-1.117-1.117-1.675-1.116-1.117 0-2.792-0.558-3.908-0.559-0.558 0-1.117 0-1.117-0.558-0.558-0.558-1.117-0.558-2.233-0.558-0.558 0-0.558-0.558-1.117-0.559 1.117 1.117 1.675 2.233 2.233 3.35 0 0.558 0.558 0.558 0.559 1.117 0.558 1.117 0 1.675-1.675 1.675-1.117 0-1.117 0-1.675 0.558 0 1.117 0 1.675 0 2.792 0 0.558 0 1.117-1.117 1.675 0 0-0.558 0-0.558 0.558-0.558 0.558-0.558 1.117 0 1.675 1.675 1.117 2.792 1.675 4.466 2.233 1.675 0 1.675 1.117 2.234 2.233 0.558 1.117 0 1.675-0.559 2.792-1.117 1.117-2.233 2.233-3.35 3.35-1.675 0.558-2.792 2.233-4.466 2.233-1.117 0-2.233-0.558-2.792-1.675-0.558-2.792-0.558-5.025 0.559-7.816 0-0.558 0.558-1.117 0-1.675-5.025 0-5.025-1.117-5.025-1.675 0-1.117 0.558-1.675 0.558-2.792 0.558-1.117 0-1.675-1.675-2.233-0.558 0-1.117 0-1.675 0-0.558 0-0.558-0.558-1.675-0.558 1.117-0.558 1.675-0.558 2.792-1.117-0.558-2.233-1.117-3.908-2.792-5.025-0.558-0.558-1.117-1.117-1.116-2.233 0-1.675-1.117-2.792-1.675-3.908-1.117-1.675-3.35-2.233-5.025-2.233-1.675-0.558-2.792-0.558-4.467-1.117-1.675-0.558-3.35-2.233-5.024-2.792-0.558-0.558-1.117-1.117-2.234-1.674-2.233-1.117-3.908-2.792-5.583-4.467-1.117-0.558-1.675-1.675-2.791-2.233-1.117-1.117-1.675-2.233-2.792-2.792-1.117-1.117-2.233-2.233-3.908-3.35-1.675-1.117-2.792-2.792-4.467-4.466-1.117-1.675-2.792-2.792-4.466-3.908-0.558 0-1.117 0-1.675 0-0.558 0-1.117 0.558-1.675 0.558-1.675 0.558-2.792 1.675-4.467 2.233 0.558-0.558 0.558-0.558 0-1.675-0.558-0.558-1.117-1.117-1.674-1.116-1.117 0-2.233 0-3.35 0-2.233 0-4.467 0.558-6.7 0.558-1.675 0-3.908 0.558-5.583 1.117 0.558 1.117 0.558 1.675 1.116 2.791-1.117 0.558-2.233 0.558-3.35 0.558-0.558 0-1.675 0.558-2.233 1.117-0.558 0-0.558 0.558-1.116 0-1.117-0.558-2.233 0-3.35 0.558h-0.559c0 0 0-0.558 0.559-0.558 0.558-0.558 1.117-1.117 1.675-1.675 0.558-0.558 1.117-0.558 2.233-1.117-0.558-0.558-0.558-1.117-0.558-1.116-0.558-0.558-1.117-0.558-1.675 0-0.558 0.558-1.117 1.117-1.675 1.675-0.558 0.558-1.117 0.558-1.675 0-0.558-0.558-0.558-1.117 0-1.675 0-0.558 0.558-1.117 1.116-1.675 0.558-0.558 0.558-1.117 1.117-1.675-1.117-1.117-1.675-2.233-2.792-2.792-1.675-1.117-3.35-2.792-4.466-4.466-1.117-2.233-2.792-3.908-5.025-5.025-0.558-0.558-1.117-1.117-1.675-1.675-0.558-0.558-0.558-0.558-1.116-1.117-1.675 0.558-2.792 1.675-4.467 2.234-0.558 0-0.558 0.558-1.117 1.116-0.558 1.117-1.675 1.117-2.791 1.117-0.558 0-1.117-0.558-0.558-1.117 0.558-1.117 1.117-2.233 2.791-1.675 0 0 0.558 0 0.558-0.558 1.117-1.117 2.233-2.792 3.909-3.908-0.558-1.675-1.675-2.792-2.234-3.908-0.558-0.558-0.558-1.117-0.558-2.234 0-0.558 0-0.558-0.558-1.116 0 0-0.558 0-1.117 0.558-0.558 0.558-1.675 1.117-2.791 0 0-0.558 0-1.117 0.558-1.675l0.558-0.558c1.675-0.558 1.675-2.233 1.675-3.908v-0.559c-0.558-1.117-0.558-1.675 0.558-2.791 1.675-1.117 3.35-3.35 3.909-5.025 0.558-1.117 1.675-1.675 2.791-2.792 1.117-1.117 2.233-2.233 2.792-3.908h0.558c2.233 0.558 2.792-1.117 3.908-2.791 0-0.558 0-1.117 0.559-1.117 1.117-1.117 1.117-2.233 0.558-3.908 0-0.558-0.558-1.675-0.558-2.233 0-0.558 0-0.558-0.559-1.117-1.675-1.117-1.675-2.233 0-3.35 1.117-0.558 1.117-1.675 1.675-2.233 0.558-1.117 0.558-2.233 0.559-3.908-0.558-1.675-0.558-3.908-1.117-5.583-0.558-2.233-1.117-5.025-1.675-7.259 0-0.558 0-0.558 0-1.116 0-1.675 0-2.792-0.558-4.467-0.558-0.558-0.558-1.675-0.559-2.233-0.558-1.675-1.117-2.792-2.791-3.35-1.675-1.117-3.908-1.675-5.583-2.791-0.558-0.558-1.117 0-1.675 0.558-0.558 1.117-1.675 2.233-2.234 3.35-0.558 0.558-1.117 1.675-1.675 2.791-1.117 1.117-3.35 2.233-5.024 0.559-0.558-1.117-1.117-1.675 0-2.792 1.117-1.675 2.233-3.35 3.908-4.466 0.558-0.558 1.117-1.675 1.675-2.234 0.558-1.117 0.558-2.233 0.558-3.35-0.558-2.233-1.117-4.467-1.117-7.258 0-2.792 0-5.025 0.559-7.816 0.558-1.117 0.558-2.792 1.116-3.908 0-0.558 0.558-1.675 1.117-2.233 1.117-1.117 2.233-2.233 2.792-3.909 0.558-1.675 1.675-3.35 1.675-5.024 0-0.558 0.558-1.117 0.558-1.675 0-0.558 0.558-1.675 0.558-2.234-0.558-1.675 0-2.792 0.558-3.908 0.558-1.117 1.117-2.792 1.675-3.908 1.117-2.233 1.117-5.025 3.35-7.258 0.558-1.117 1.117-2.233 1.675-3.35 0.558-2.233 1.675-3.908 2.792-5.583 0.558-0.558 0.558-0.558 0.558-1.117 0.558-1.675 1.675-3.35 2.792-5.025 1.117-1.675 1.117-3.35 1.675-5.024 0-0.558 0-1.117 0.558-1.675 1.675-1.675 1.117-3.908 0.558-6.142-1.117-2.792-1.675-5.583-1.116-8.374 0-0.558 0-1.117 0.558-1.117 0.558-1.117 0.558-1.675 1.117-2.792v-0.558c1.117-1.117 2.233-2.792 3.908-3.35 2.233-1.117 4.467-1.675 7.258-2.233 2.233 0 4.467-1.117 6.141-3.35 0-0.558 0.558-0.558 1.117-1.117l0.558-0.558c0.558-1.117 1.117-1.675 1.675-2.233 1.117-1.117 2.233-2.792 3.35-3.908 1.117-1.117 2.233-2.792 3.908-4.467l0.559-0.558c1.117-1.117 2.233-2.233 3.349-2.792 1.117-1.117 2.233-2.233 3.35-3.35 1.117-1.117 1.675-2.233 2.792-3.35 1.117-0.558 2.233-1.675 3.35-2.791 1.117-1.117 2.233-2.233 2.791-2.792 1.117-1.117 2.792-2.233 3.909-2.791 1.117-0.558 2.233-1.117 2.791-2.792 0.558-1.675 1.117-2.792 1.675-4.466 0-1.117 0.558-2.233 1.117-3.35 0.558 0 1.117 0 2.233-0.558-0.558-0.558-1.117-0.558-1.117-1.117 0-0.558 0.558-1.117 0.559-1.117 0-0.558 0.558-1.117 0.558-1.675 0 0 0.558 0 0.558-0.558 0 0 0.558 0 0.559-0.558-1.117 0.558-1.675 0-2.234-0.559 0.558 0.558 1.117 0.558 2.234 1.117 0 0 0.558 0 0.558-0.558 0-0.558 0-1.117 0-1.117 0 0-0.558 0-1.117 0-0.558 0-1.117 0.558-1.675 0.558zM182.097 295.292c0-0.558-0.558-0.558-0.559-1.117-0.558-1.117 0-1.675 0.559-2.233 0.558-0.558 1.117-0.558 2.233-0.558 1.117 0.558 1.675 1.117 1.675 2.233 0 0.558 0 1.675 0 2.233 0.558 2.233 0.558 2.233 2.791 2.233 1.117 0 2.233 0 3.35 0 2.233-0.558 4.467-1.675 6.7-2.233 2.233-0.558 4.467-1.117 6.7-1.675 0.558 0 1.117 0 2.233 0 2.233 0.558 3.908 0 5.583-1.117 0.558-0.558 1.675-0.558 2.233-1.116 1.117-0.558 2.233-0.558 3.35-1.117 2.792-1.675 5.583-2.792 7.817-4.466 1.675-1.117 3.35-2.233 5.024-3.35 1.675-1.117 3.35-2.233 5.025-3.35 1.117-0.558 2.792-1.675 3.908-2.792 2.233-1.675 3.908-3.35 6.142-4.466 1.117-0.558 1.675-1.117 2.233-1.675 1.117-0.558 1.675-1.675 2.792-2.233 0.558-0.558 1.117-1.117 2.233-1.675 0.558-0.558 0.558-0.558 0.558-1.117 1.675-1.117 3.35-3.35 4.467-5.025 1.117-1.117 2.233-2.233 3.35-3.908 1.675-1.675 2.792-3.908 4.466-6.141 1.117-1.117 2.233-2.792 2.792-3.909 1.117-2.233 2.233-4.467 3.908-6.141v-0.558c1.117-2.233 2.233-4.467 3.35-6.7 1.675-2.792 2.792-6.141 4.466-8.933 0.558-1.117 1.117-2.233 1.117-3.35 1.117-2.233 1.675-4.467 2.233-6.7 0-0.558 0-0.558 0.559-1.116 1.675-3.35 2.792-6.7 3.349-10.608 0.558-2.233 1.117-4.467 1.675-6.7 1.117-3.35 1.117-6.141 1.675-9.491 0.558-2.233 0.558-5.025 0.559-7.258 0.558-3.35 0.558-7.258 0-10.608 0-2.792-0.558-6.141-0.559-8.933 0-2.792-0.558-5.025-1.116-7.817-0.558-2.792-1.117-5.025-1.675-7.816-1.117-2.233-1.675-4.467-2.234-7.258-0.558-2.233-1.675-3.908-1.674-6.142 0-1.675-0.558-3.35-2.234-3.908-1.675-0.558-2.792-1.117-4.466-2.233-3.35-2.233-5.025-5.025-4.467-8.375 0-1.675 0.558-3.908 1.117-5.583 0.558-1.675 1.117-3.35 0-4.467-0.558-1.675-1.675-2.792-2.233-3.908-1.117-1.675-1.675-2.792-2.792-3.908-1.117-2.233-2.233-4.467-3.908-6.141-2.233-2.792-3.908-5.583-6.7-7.817l-0.558-0.558c-1.675-2.233-3.35-4.467-5.583-6.142-1.117-1.117-2.233-2.233-3.35-2.791-0.558-0.558-1.117-1.117-2.233-1.675-1.675-1.117-3.35-1.675-4.467-2.792-1.675-1.675-3.908-2.792-5.583-3.908 0 0-0.558 0-0.558-0.558-2.233-1.117-3.908-1.675-6.142-2.792-2.233-1.117-4.467-1.675-6.7-1.675-0.558 0-0.558 0-1.116 0-0.558-0.558-1.675-0.558-2.233-0.558-0.558 0-0.558 0-1.117 0-1.117-0.558-2.792 0-3.908 0-2.233 0.558-4.467 0.558-6.7-0.558-2.792-1.117-5.025-2.233-7.258-3.35-1.675-1.117-2.792-2.233-4.467-3.35-3.35-2.792-6.7-6.141-10.608-8.933 0.558-2.792-0.558-3.35-2.791-3.35-1.117 0-2.233 0.558-3.35 1.117-0.558 0.558-0.558 0.558-1.117 1.116-1.675 1.117-2.792 2.792-4.466 3.909-2.792 1.675-3.908 1.117-6.142 0-0.558-0.558-1.117-1.117-1.675-1.675-1.117-1.117-2.233-2.792-2.791-3.909-1.117-2.233-3.35-2.233-5.583-2.233-1.117 0-2.792 0.558-3.908 0.558-2.233 0-4.467 1.117-5.584 2.792-1.117 1.675-2.233 3.35-3.908 5.025-0.558 0.558-1.675 1.117-2.233 2.233-1.117 1.117-2.233 1.117-3.35 0-0.558-0.558-1.117-0.558-1.675-1.117-0.558 0.558-1.117 1.117-1.117 1.675-0.558 1.117-1.117 2.233-1.674 3.909-0.558 1.675-1.675 3.35-2.792 4.466-0.558 0.558-0.558 0.558-1.117 1.117-0.558 1.117-2.233 1.675-3.35 1.675-1.117 1.117-2.233 2.792-2.791 3.908-0.558 1.117-1.117 2.233-1.675 3.908-0.558 0.558-0.558 1.675-1.117 2.233-0.558 1.117-0.558 1.675-0.558 2.792 0.558 1.675-0.558 2.233-2.233 2.791-1.117 0-1.117 0-1.675 1.117 0 1.675 0.558 2.792 1.116 4.467 0.558 0.558 1.117 1.675 1.117 2.233 0 1.117 0.558 1.675 1.675 2.233 0.558 0.558 1.117 1.117 1.675 1.117 0.558 0 0.558 0.558 1.117 0.558 0.558 0.558 1.117 0 1.116-0.558 0.558-1.675 1.117-3.35 1.117-5.025 0.558-2.233 0.558-3.908 1.116-6.142 0.558-1.117 1.117-1.675 1.675-2.233 0 0 0.558 0 1.117 0v0.559c-0.558 2.792-1.675 6.141-2.233 8.933-0.558 1.117-0.558 2.233-1.117 3.349 0 0.558-0.558 1.117-1.116 1.117-1.117 0.558-2.233 1.117-3.35 1.117-0.558 0-1.117 0-1.675 0-1.117-0.558-2.233-1.675-3.35-2.234-0.558-0.558-1.117-1.117-1.675-1.674-0.558-1.117-1.117-2.233-1.675-3.35-0.558-1.117-1.117-1.675-2.233-2.234-0.558-0.558-1.117-0.558-1.675-1.116-1.117-1.117-2.233-1.675-3.908-1.675-0.558 0-1.675 0-2.234 0-0.558 0-1.675 0.558-2.233 1.116-1.117 0.558-1.675 0.558-2.791 0-2.792-1.117-5.583-0.558-8.375 0.559-1.117 0.558-2.233 1.117-3.35 1.116-2.792 0-5.025 0-7.816 0-2.792 0-5.025-0.558-7.817-1.116-1.117 0-2.233 0-3.35 0-2.233 0.558-2.792 2.233-2.233 4.466 0.558 2.233 1.117 5.025 1.117 7.258 0 1.675 0 3.35 0 5.025 0 1.117 0 1.675 0 2.792 0 1.675-0.558 3.35-0.559 5.025-0.558 3.35-2.233 6.141-4.466 8.374-1.675 1.675-3.908 3.35-6.142 3.908-1.117 0.558-2.233 1.117-3.908 1.675-2.792 1.117-5.025 3.35-6.7 6.142-0.558 1.117-1.117 2.233-1.674 3.35-1.117 1.675-1.675 2.792-2.792 4.466-0.558 1.117-1.675 2.233-2.233 3.35-0.558 1.117-1.675 1.675-1.675 2.792-1.117 2.233-1.675 4.467-2.792 6.699-0.558 1.117-0.558 2.792-1.116 3.909-1.117 2.233-1.117 4.467-1.117 7.258 0 0.558 0 1.117 0 2.233 0 2.792-0.558 6.141-0.558 8.933 0 2.792 0 5.583 0.558 8.375 0 1.117 0 2.792 0 3.908 0 2.233 0.558 5.025 0.558 7.258 0 2.233 0 5.025 1.117 7.258v0.558c0.558 2.233 0.558 4.467 1.116 6.7 0 0.558 0 1.117 0.559 1.675 1.117 3.35 1.675 6.141 2.791 9.491 0.558 2.233 1.675 4.467 2.234 6.7 0.558 2.233 2.792 4.467 3.349 7.258v0c1.675 3.35 3.35 6.7 5.584 10.05 0.558 1.117 1.675 2.233 2.233 3.35 1.117 1.675 1.675 3.35 2.791 4.466 0.558 1.117 1.675 2.233 2.234 2.792 0.558 1.117 1.117 2.233 2.233 3.35 1.117 1.117 2.233 2.792 3.35 3.908 1.675 2.792 3.908 5.025 6.141 6.7 1.117 1.117 2.233 1.675 3.35 2.791 0.558 0.558 1.117 0.558 1.117 1.117 0.558 0.558 1.117 1.117 2.233 1.675 4.467 2.233 7.816 5.583 11.725 8.933 1.675 1.675 3.35 3.35 5.583 4.466 2.233 1.675 3.908 3.35 6.7 3.908 0 0 0.558 0 0.558 0.559 1.117 1.117 2.792 1.675 3.908 2.233 2.233 1.117 5.025 2.233 7.258 3.35 0.558 0.558 1.675 0.558 2.233 1.117 1.675 0.558 3.35 1.117 5.025 1.674 1.675 0.558 2.792 1.117 4.467 1.117h0.558c1.117 0.558 1.675 0.558 2.792 0 0.558 0 1.117 0 1.116 0.558 0 0.558 0.558 0.558 1.117 0.559 0.558 0 1.117 0 2.233 0 0.558-0.558 0.558-1.117 1.117-2.234 0.558 0.558 1.117 0.558 1.116 0.559 0.558 1.117 1.675 1.117 2.792 1.116h0.558c1.117 0 1.675 0 2.233-0.558 0-0.558 1.117-0.558 1.675-0.558 1.675 0.558 3.35 0.558 5.025 1.116 1.117 0.558 2.792 0.558 3.35-0.558 0.558-0.558 1.117-1.117 2.233-0.558 1.117 0.558 1.675 0.558 2.792 0 0.558 0 1.117 0 1.117 0 1.675 0.558 2.792 0.558 4.466 1.116 2.233 0.558 2.233 0.558 3.908-1.116 0.558-0.558 1.675-0.558 2.233 0 0.558 1.117 0.558 1.675 0.559 2.791 0.558 0 0.558 0 1.116-0.558 0-1.117 0.558-1.117 1.675-1.675 0.558 0.558 0.558 0.558 1.117 0.558 1.117 1.117 1.675 1.117 2.233-0.558 0-0.558 0-1.117 0.559-1.116 0.558 0 1.117 0.558 1.116 0.558 0.558 1.117 1.675 1.675 2.233 2.791 1.117 1.117 2.792 1.117 3.35 0 0.558-0.558 1.117-0.558 1.675-0.558 0-0.558 0-1.117 0-1.675 1.675 1.117 1.117 1.117 0.559 1.117zM89.417 34.559c1.675 0.558 2.792 0.558 3.349-0.558-1.117 0.558-2.233-0.558-3.349 0.558z" fill="#843ef0" fill-rule="nonzero" stroke="none" stroke-width="1" stroke-linecap="butt" stroke-linejoin="miter" stroke-miterlimit="10" stroke-dasharray="" stroke-dashoffset="0" font-family="none" font-weight="none" font-size="none" text-anchor="none" style="mix-blend-mode: normal" data-fill-palette-color="tertiary"></path></g><g transform="matrix(1,0,0,1,64,151.10891840607212)"><svg viewBox="0 0 192 57.78216318785579" height="57.78216318785579" width="192"><g><svg viewBox="0 0 192 57.78216318785579" height="57.78216318785579" width="192"><g><svg viewBox="0 0 192 57.78216318785579" height="57.78216318785579" width="192"><g><svg viewBox="0 0 192 57.78216318785579" height="57.78216318785579" width="192"><g id="textblocktransform"><svg viewBox="0 0 192 57.78216318785579" height="57.78216318785579" width="192" id="textblock"><g><svg viewBox="0 0 192 57.78216318785579" height="57.78216318785579" width="192"><g transform="matrix(1,0,0,1,0,0)"><svg width="192" viewBox="2.98 -37.55 128.65 38.72" height="57.78216318785579" data-palette-color="#843ef0"><path d="M3.17 0.59L3.17 0.59Q2.98 0.39 2.98 0.05L2.98 0.05Q2.98-0.2 3-0.37 3.03-0.54 3.08-0.78L3.08-0.78Q3.32-1.9 3.32-3.05 3.32-4.2 3.42-5.32L3.42-5.32Q3.47-6.01 3.49-6.69 3.52-7.37 3.52-8.06L3.52-8.06Q3.52-12.11 3.27-16.14 3.03-20.17 3.03-24.27L3.03-24.27Q3.03-27.1 3.13-29.96 3.22-32.81 3.27-35.69L3.27-35.69Q3.71-35.94 4.35-35.89 4.98-35.84 5.37-36.33L5.37-36.33Q5.62-36.38 5.86-36.35 6.1-36.33 6.35-36.33L6.35-36.33Q6.88-36.33 7.37-36.67 7.86-37.01 8.45-37.26L8.45-37.26Q8.74-37.16 8.86-37.18 8.98-37.21 9.13-37.21L9.13-37.21Q9.28-37.21 9.77-36.87 10.25-36.52 10.84-36.08 11.43-35.64 11.94-35.25 12.45-34.86 12.6-34.77L12.6-34.77Q13.82-33.84 14.77-32.74 15.72-31.64 16.65-30.52L16.65-30.52Q17.53-29.39 18.55-28.25 19.58-27.1 20.56-26.12L20.56-26.12Q20.9-25.73 21.26-25.44 21.63-25.15 21.97-24.76L21.97-24.76Q22.12-24.56 22.24-24.34 22.36-24.12 22.51-23.88L22.51-23.88Q22.8-23.54 23.19-23.29 23.58-23.05 23.93-22.71L23.93-22.71Q24.17-22.51 24.66-21.92 25.15-21.34 25.15-21.04L25.15-21.04Q25.15-20.85 25.05-20.7 24.95-20.56 24.85-20.36L24.85-20.36Q24.8-20.21 24.8-19.92 24.8-19.63 24.76-19.53L24.76-19.53Q24.27-19.14 24.22-19.04 24.17-18.95 24.07-18.85L24.07-18.85Q23.93-18.65 23.71-18.53 23.49-18.41 23.39-18.16L23.39-18.16Q23.29-18.02 23.32-17.87 23.34-17.72 23.24-17.53L23.24-17.53Q23-16.99 22.46-16.5 21.92-16.02 21.53-15.43L21.53-15.43Q21-14.55 20.46-13.67 19.92-12.79 19.24-11.96L19.24-11.96Q18.95-11.57 18.63-11.21 18.31-10.84 18.02-10.45L18.02-10.45Q17.77-10.16 17.58-9.84 17.38-9.52 17.14-9.13L17.14-9.13Q16.6-8.45 16.11-7.79 15.63-7.13 15.09-6.45L15.09-6.45Q14.5-5.62 13.82-4.81 13.13-4 12.6-3.17L12.6-3.17Q12.06-2.29 11.47-1.56 10.89-0.83 10.21-0.15L10.21-0.15Q10.01 0 9.72 0.29 9.42 0.59 9.13 0.59L9.13 0.59Q8.94 0.59 8.81 0.44 8.69 0.29 8.45 0.29L8.45 0.29Q8.4 0.29 8.15 0.34 7.91 0.39 7.57 0.44L7.57 0.44 6.69 0.54Q5.91 0.93 5.57 0.9 5.22 0.88 4.88 0.93L4.88 0.93Q4.69 0.98 4.57 1.07 4.44 1.17 4.3 1.17L4.3 1.17Q3.96 1.17 3.76 0.85 3.56 0.54 3.17 0.59ZM17.82-20.51L17.82-20.51Q17.82-20.75 17.36-21.19 16.89-21.63 16.65-21.83L16.65-21.83Q16.31-22.12 15.84-22.39 15.38-22.66 15.09-23L15.09-23Q14.84-23.29 14.62-23.61 14.4-23.93 14.16-24.22L14.16-24.22Q13.28-25.2 12.38-26.17 11.47-27.15 10.79-28.32L10.79-28.32Q10.35-28.61 9.96-29 9.57-29.39 9.03-29.64L9.03-29.64Q8.94-29.35 8.96-29.03 8.98-28.71 8.98-28.42L8.98-28.42Q8.98-27.29 8.89-26.22 8.79-25.15 8.79-24.07L8.79-24.07Q8.79-21.44 8.91-18.87 9.03-16.31 9.03-13.72L9.03-13.72Q9.03-12.74 9.06-11.77 9.08-10.79 9.23-9.81L9.23-9.81Q9.13-9.52 9.13-9.28L9.13-9.28Q9.13-9.03 9.23-8.64L9.23-8.64Q9.62-8.89 9.89-9.25 10.16-9.62 10.4-9.96L10.4-9.96Q11.23-11.04 12.04-12.13 12.84-13.23 13.67-14.36L13.67-14.36Q14.21-15.09 14.77-15.8 15.33-16.5 15.87-17.29L15.87-17.29Q16.02-17.48 16.33-17.97 16.65-18.46 16.97-18.97 17.29-19.48 17.55-19.92 17.82-20.36 17.82-20.51ZM35.06-12.79L35.06-12.79Q35.15-12.55 35.76-11.77 36.37-10.99 37.16-10.06 37.94-9.13 38.64-8.28 39.35-7.42 39.65-7.03L39.65-7.03Q40.18-6.35 40.7-5.69 41.21-5.03 41.65-4.3L41.65-4.3 42.53-2.83Q42.92-2.34 43.23-2 43.55-1.66 43.75-1.07L43.75-1.07Q43.85-0.68 43.85-0.54L43.85-0.54Q43.85-0.2 43.6-0.05L43.6-0.05Q43.21-0.05 43.19 0.07 43.16 0.2 42.97 0.29L42.97 0.29Q42.77 0.39 42.36 0.42 41.94 0.44 41.7 0.44L41.7 0.44Q41.26 0.44 40.6 0.42 39.94 0.39 39.55 0.54L39.55 0.54Q39.45 0.59 39.26 0.68 39.06 0.78 38.96 0.78L38.96 0.78Q38.57 0.78 38.4 0.66 38.23 0.54 37.94 0.49L37.94 0.49Q37.55 0.05 37.28-0.42 37.01-0.88 36.67-1.37L36.67-1.37Q36.33-1.71 35.98-1.98 35.64-2.25 35.4-2.59L35.4-2.59Q34.67-3.66 33.88-4.69 33.1-5.71 32.27-6.69L32.27-6.69Q31.88-7.23 31.44-7.67 31-8.11 30.61-8.64L30.61-8.64Q30.22-9.13 29.88-9.69 29.54-10.25 29.2-10.79L29.2-10.79Q28.9-11.23 28.42-11.94 27.93-12.65 27.34-13.35 26.76-14.06 26.17-14.7 25.58-15.33 25.19-15.67L25.19-15.67Q25.14-15.97 24.95-16.14 24.75-16.31 24.51-16.46L24.51-16.46Q24.41-16.7 24.29-16.92 24.17-17.14 24.17-17.38L24.17-17.38Q24.17-17.72 24.31-18.02L24.31-18.02Q24.41-18.21 24.44-18.38 24.46-18.55 24.56-18.75L24.56-18.75Q24.8-19.29 25.22-19.8 25.63-20.31 25.88-20.9L25.88-20.9Q25.97-21.04 25.97-21.22 25.97-21.39 26.07-21.53L26.07-21.53Q26.17-21.92 26.49-22.19 26.8-22.46 27-22.8L27-22.8Q27.24-23.19 27.46-23.61 27.68-24.02 27.93-24.51L27.93-24.51Q28.66-25.73 29.47-26.88 30.27-28.03 31.1-29.2L31.1-29.2Q31.74-30.18 32.35-31.08 32.96-31.98 33.59-32.91L33.59-32.91Q33.93-33.35 34.32-33.94 34.71-34.52 35.18-35.11 35.64-35.69 36.13-36.18 36.62-36.67 37.11-36.96L37.11-36.96Q37.84-37.01 38.08-36.65 38.33-36.28 38.82-36.28L38.82-36.28Q39.45-36.13 39.65-35.89 39.84-35.64 40.09-35.4L40.09-35.4Q40.77-35.4 41.18-35.16 41.6-34.91 41.99-34.42L41.99-34.42Q41.84-33.89 41.55-33.47 41.26-33.06 41.01-32.62L41.01-32.62Q40.62-32.42 40.45-32.08 40.28-31.74 39.94-31.54L39.94-31.54Q39.45-30.71 38.91-29.96 38.38-29.2 37.84-28.47L37.84-28.47Q37.55-28.03 37.23-27.69 36.91-27.34 36.67-26.95L36.67-26.95Q36.57-26.81 36.5-26.64 36.42-26.46 36.33-26.32L36.33-26.32Q35.74-25.39 35.06-24.58 34.37-23.78 33.79-22.8L33.79-22.8Q33.59-22.46 33.47-22.09 33.35-21.73 33.15-21.39L33.15-21.39Q32.96-21.09 32.59-20.61 32.22-20.12 31.88-19.56 31.54-18.99 31.27-18.48 31-17.97 31-17.63L31-17.63Q31.05-17.38 31.61-16.67 32.18-15.97 32.88-15.16 33.59-14.36 34.23-13.65 34.86-12.94 35.06-12.79ZM38.28-21.68L38.28-21.68Q38.62-20.95 39.01-20.41L39.01-20.41Q39.16-20.21 39.35-20.07 39.55-19.92 39.65-19.68L39.65-19.68Q39.74-19.58 39.84-19.26 39.94-18.95 40.04-18.8L40.04-18.8Q40.18-18.41 40.62-17.92 41.06-17.43 41.06-17.04L41.06-17.04Q41.06-16.8 40.96-16.5 40.87-16.21 40.82-15.97L40.82-15.97Q40.77-15.67 40.77-15.36 40.77-15.04 40.57-14.79L40.57-14.79Q40.33-14.55 40.04-14.5 39.74-14.45 39.5-14.26L39.5-14.26Q39.4-14.16 39.21-13.92 39.01-13.67 38.82-13.38 38.62-13.09 38.45-12.82 38.28-12.55 38.28-12.4L38.28-12.4Q37.69-12.35 37.52-12.38 37.35-12.4 37.16-12.35L37.16-12.35Q36.91-12.6 36.64-12.77 36.37-12.94 35.98-13.09L35.98-13.09Q35.89-13.48 35.54-13.99 35.2-14.5 34.96-14.84L34.96-14.84 34.62-15.28Q33.88-16.31 33.27-17.26 32.66-18.21 32.37-19.38L32.37-19.38Q33.3-20.07 33.81-20.41 34.32-20.75 34.91-21.04 35.5-21.34 36.06-21.61 36.62-21.88 37.11-22.27L37.11-22.27Q37.5-22.27 37.64-22.22 37.79-22.17 37.84-22.12 37.89-22.07 37.96-21.95 38.03-21.83 38.28-21.68ZM63.76-37.55L63.76-37.55Q64.16-37.55 64.33-37.38 64.5-37.21 64.59-36.96L64.59-36.96Q65.08-37.01 65.6-36.79 66.11-36.57 66.21-36.38L66.21-36.38Q66.6-36.33 66.69-36.18 66.79-36.04 66.99-35.99L66.99-35.99 67.52-36.04Q67.72-35.84 68.28-35.64 68.84-35.45 68.94-35.21L68.94-35.21Q68.84-34.96 68.87-34.69 68.89-34.42 68.89-34.08L68.89-34.08Q68.75-33.35 68.43-32.76 68.11-32.18 67.87-31.64L67.87-31.64Q67.72-31.4 67.65-31.1 67.57-30.81 67.48-30.57L67.48-30.57Q67.38-30.37 67.3-30.2 67.23-30.03 67.13-29.83L67.13-29.83Q67.13-29.59 67.04-29.32 66.94-29.05 66.84-28.81L66.84-28.81Q66.84-28.52 66.79-28.39 66.74-28.27 66.74-28.17L66.74-28.17Q65.82-25.93 65.28-23.97 64.74-22.02 64.2-20.07L64.2-20.07Q63.96-19.48 63.72-18.6 63.47-17.72 63.11-16.53 62.74-15.33 62.32-13.99 61.91-12.65 61.54-11.5 61.18-10.35 60.91-9.55 60.64-8.74 60.59-8.64L60.59-8.64Q60.44-7.81 60.15-6.96 59.86-6.1 59.66-5.18L59.66-5.18Q59.42-4.88 59.37-4.52 59.32-4.15 59.13-3.81L59.13-3.81Q58.74-3.86 58.49-3.61L58.49-3.61Q58.44-3.22 58.56-2.88 58.69-2.54 58.69-2.15L58.69-2.15Q58.49-1.61 58.2-1.46 57.91-1.32 57.81-0.98L57.81-0.98Q57.47-1.07 57.29-0.88 57.12-0.68 56.93-0.68L56.93-0.68Q56.34-0.83 56.25-0.49L56.25-0.49Q55.95-0.59 55.85-0.42 55.76-0.24 55.66-0.2L55.66-0.2Q55.27-0.2 55.05-0.02 54.83 0.15 54.54 0.2L54.54 0.2Q54.34 0.1 54.15-0.02 53.95-0.15 53.8-0.29L53.8-0.29Q53.51-1.12 53.27-1.93 53.02-2.73 52.78-3.56L52.78-3.56Q52.68-3.96 52.53-4.3 52.39-4.64 52.29-5.03L52.29-5.03Q52.24-5.27 52.24-5.44 52.24-5.62 52.19-5.81L52.19-5.81Q52.09-6.05 52-6.3 51.9-6.54 51.8-6.79L51.8-6.79Q51.41-7.86 51.22-8.98L51.22-8.98Q50.97-9.81 50.75-10.62 50.53-11.43 50.34-12.26L50.34-12.26Q50.19-12.94 50-13.7 49.8-14.45 49.51-15.04L49.51-15.04Q49.41-15.82 49.09-16.53 48.77-17.24 48.77-17.97L48.77-17.97Q48.53-18.75 48.36-19.53 48.19-20.31 47.94-21.09L47.94-21.09Q47.85-21.48 47.7-21.83 47.55-22.17 47.46-22.51L47.46-22.51Q47.31-22.95 47.21-23.44 47.11-23.93 47.02-24.41L47.02-24.41Q46.87-24.85 46.72-25.27 46.58-25.68 46.43-26.12L46.43-26.12Q46.19-26.95 45.97-27.76 45.75-28.56 45.5-29.39L45.5-29.39Q45.26-30.32 45.04-31.23 44.82-32.13 44.28-32.96L44.28-32.96Q44.14-33.2 44.06-33.52 43.99-33.84 43.84-34.13L43.84-34.13Q43.94-34.52 43.89-35.03 43.84-35.55 44.04-35.84L44.04-35.84Q44.53-35.84 45.21-35.86 45.89-35.89 46.24-35.79L46.24-35.79Q46.43-35.84 46.55-35.94 46.67-36.04 46.87-36.08L46.87-36.08Q47.16-35.94 47.46-35.94L47.46-35.94Q47.9-35.94 48.14-36.13L48.14-36.13Q48.68-35.89 48.73-36.04 48.77-36.18 48.97-36.18L48.97-36.18Q49.26-36.08 49.41-35.77 49.56-35.45 49.7-35.21L49.7-35.21Q50.24-34.23 50.51-33.28 50.78-32.32 51.07-31.25L51.07-31.25Q51.41-30.27 51.7-29.32 52-28.37 52.24-27.39L52.24-27.39Q52.39-26.9 52.49-26.42 52.58-25.93 52.68-25.44L52.68-25.44Q52.83-24.9 53.02-24.44 53.22-23.97 53.41-23.44L53.41-23.44Q53.51-22.9 53.61-22.39 53.71-21.88 53.85-21.34L53.85-21.34Q53.95-20.95 54.1-20.61 54.24-20.26 54.34-19.87L54.34-19.87Q54.44-19.48 54.54-19.07 54.63-18.65 54.73-18.26L54.73-18.26Q54.98-17.29 55.27-16.33 55.56-15.38 55.81-14.4L55.81-14.4Q56.05-14.55 56.1-14.94 56.15-15.33 56.29-15.58L56.29-15.58Q56.39-16.16 56.61-16.85 56.83-17.53 57.03-18.12L57.03-18.12Q57.08-18.36 57.15-18.55 57.22-18.75 57.32-18.99L57.32-18.99Q57.47-19.29 57.51-19.6 57.56-19.92 57.66-20.26L57.66-20.26Q57.86-20.95 58.08-21.63 58.3-22.31 58.49-23L58.49-23Q58.69-23.63 58.83-24.32 58.98-25 59.22-25.59L59.22-25.59Q59.47-26.12 59.64-26.61 59.81-27.1 59.96-27.64L59.96-27.64Q60.1-28.17 60.2-28.71 60.3-29.25 60.54-29.69L60.54-29.69Q60.64-29.93 60.76-30.25 60.88-30.57 60.98-30.86L60.98-30.86Q61.23-31.64 61.42-32.42 61.62-33.2 61.96-33.98L61.96-33.98Q62.2-34.67 62.54-35.3 62.89-35.94 63.13-36.62L63.13-36.62Q63.33-37.11 63.47-37.26 63.62-37.4 63.76-37.55ZM79.09-12.79L79.09-12.79Q79.19-12.55 79.8-11.77 80.41-10.99 81.19-10.06 81.97-9.13 82.68-8.28 83.39-7.42 83.68-7.03L83.68-7.03Q84.22-6.35 84.73-5.69 85.25-5.03 85.69-4.3L85.69-4.3 86.56-2.83Q86.96-2.34 87.27-2 87.59-1.66 87.79-1.07L87.79-1.07Q87.88-0.68 87.88-0.54L87.88-0.54Q87.88-0.2 87.64-0.05L87.64-0.05Q87.25-0.05 87.22 0.07 87.2 0.2 87 0.29L87 0.29Q86.81 0.39 86.39 0.42 85.98 0.44 85.73 0.44L85.73 0.44Q85.3 0.44 84.64 0.42 83.98 0.39 83.59 0.54L83.59 0.54Q83.49 0.59 83.29 0.68 83.1 0.78 83 0.78L83 0.78Q82.61 0.78 82.44 0.66 82.27 0.54 81.97 0.49L81.97 0.49Q81.58 0.05 81.32-0.42 81.05-0.88 80.71-1.37L80.71-1.37Q80.36-1.71 80.02-1.98 79.68-2.25 79.44-2.59L79.44-2.59Q78.7-3.66 77.92-4.69 77.14-5.71 76.31-6.69L76.31-6.69Q75.92-7.23 75.48-7.67 75.04-8.11 74.65-8.64L74.65-8.64Q74.26-9.13 73.92-9.69 73.58-10.25 73.23-10.79L73.23-10.79Q72.94-11.23 72.45-11.94 71.97-12.65 71.38-13.35 70.79-14.06 70.21-14.7 69.62-15.33 69.23-15.67L69.23-15.67Q69.18-15.97 68.99-16.14 68.79-16.31 68.55-16.46L68.55-16.46Q68.45-16.7 68.33-16.92 68.21-17.14 68.21-17.38L68.21-17.38Q68.21-17.72 68.35-18.02L68.35-18.02Q68.45-18.21 68.47-18.38 68.5-18.55 68.6-18.75L68.6-18.75Q68.84-19.29 69.26-19.8 69.67-20.31 69.91-20.9L69.91-20.9Q70.01-21.04 70.01-21.22 70.01-21.39 70.11-21.53L70.11-21.53Q70.21-21.92 70.52-22.19 70.84-22.46 71.04-22.8L71.04-22.8Q71.28-23.19 71.5-23.61 71.72-24.02 71.97-24.51L71.97-24.51Q72.7-25.73 73.5-26.88 74.31-28.03 75.14-29.2L75.14-29.2Q75.77-30.18 76.38-31.08 76.99-31.98 77.63-32.91L77.63-32.91Q77.97-33.35 78.36-33.94 78.75-34.52 79.22-35.11 79.68-35.69 80.17-36.18 80.66-36.67 81.14-36.96L81.14-36.96Q81.88-37.01 82.12-36.65 82.37-36.28 82.85-36.28L82.85-36.28Q83.49-36.13 83.68-35.89 83.88-35.64 84.12-35.4L84.12-35.4Q84.81-35.4 85.22-35.16 85.64-34.91 86.03-34.42L86.03-34.42Q85.88-33.89 85.59-33.47 85.3-33.06 85.05-32.62L85.05-32.62Q84.66-32.42 84.49-32.08 84.32-31.74 83.98-31.54L83.98-31.54Q83.49-30.71 82.95-29.96 82.41-29.2 81.88-28.47L81.88-28.47Q81.58-28.03 81.27-27.69 80.95-27.34 80.71-26.95L80.71-26.95Q80.61-26.81 80.53-26.64 80.46-26.46 80.36-26.32L80.36-26.32Q79.78-25.39 79.09-24.58 78.41-23.78 77.82-22.8L77.82-22.8Q77.63-22.46 77.51-22.09 77.39-21.73 77.19-21.39L77.19-21.39Q76.99-21.09 76.63-20.61 76.26-20.12 75.92-19.56 75.58-18.99 75.31-18.48 75.04-17.97 75.04-17.63L75.04-17.63Q75.09-17.38 75.65-16.67 76.21-15.97 76.92-15.16 77.63-14.36 78.26-13.65 78.9-12.94 79.09-12.79ZM82.32-21.68L82.32-21.68Q82.66-20.95 83.05-20.41L83.05-20.41Q83.2-20.21 83.39-20.07 83.59-19.92 83.68-19.68L83.68-19.68Q83.78-19.58 83.88-19.26 83.98-18.95 84.07-18.8L84.07-18.8Q84.22-18.41 84.66-17.92 85.1-17.43 85.1-17.04L85.1-17.04Q85.1-16.8 85-16.5 84.9-16.21 84.86-15.97L84.86-15.97Q84.81-15.67 84.81-15.36 84.81-15.04 84.61-14.79L84.61-14.79Q84.37-14.55 84.07-14.5 83.78-14.45 83.54-14.26L83.54-14.26Q83.44-14.16 83.24-13.92 83.05-13.67 82.85-13.38 82.66-13.09 82.49-12.82 82.32-12.55 82.32-12.4L82.32-12.4Q81.73-12.35 81.56-12.38 81.39-12.4 81.19-12.35L81.19-12.35Q80.95-12.6 80.68-12.77 80.41-12.94 80.02-13.09L80.02-13.09Q79.92-13.48 79.58-13.99 79.24-14.5 79-14.84L79-14.84 78.65-15.28Q77.92-16.31 77.31-17.26 76.7-18.21 76.41-19.38L76.41-19.38Q77.34-20.07 77.85-20.41 78.36-20.75 78.95-21.04 79.53-21.34 80.1-21.61 80.66-21.88 81.14-22.27L81.14-22.27Q81.54-22.27 81.68-22.22 81.83-22.17 81.88-22.12 81.93-22.07 82-21.95 82.07-21.83 82.32-21.68ZM100.14-35.99L100.14-35.99Q100.23-35.79 100.36-35.72 100.48-35.64 100.53-35.4L100.53-35.4Q100.87-35.16 101.06-35.03 101.26-34.91 101.31-34.62L101.31-34.62Q101.75-34.28 101.82-34.18 101.89-34.08 101.94-33.94L101.94-33.94Q102.19-33.74 102.41-33.59 102.63-33.45 102.72-33.15L102.72-33.15Q103.12-32.81 103.21-32.62 103.31-32.42 103.36-32.18L103.36-32.18Q103.16-31.84 102.58-31.25 101.99-30.66 101.26-30 100.53-29.35 99.84-28.74 99.16-28.13 98.77-27.78L98.77-27.78Q98.67-27.59 98.53-27.44 98.38-27.29 98.28-27.1L98.28-27.1Q97.99-26.86 97.74-26.59 97.5-26.32 97.16-26.17L97.16-26.17Q96.67-25.49 95.79-24.83 94.91-24.17 94.62-23.54L94.62-23.54Q94.67-23.39 94.84-23.24 95.01-23.1 95.11-23L95.11-23Q95.5-22.61 96.03-22.29 96.57-21.97 96.96-21.58L96.96-21.58Q97.35-21.24 97.74-20.92 98.13-20.61 98.53-20.26L98.53-20.26Q98.72-20.07 99.01-19.68L99.01-19.68Q99.5-19.29 99.97-18.97 100.43-18.65 100.87-18.26L100.87-18.26Q101.8-17.48 102.68-16.67 103.55-15.87 104.53-15.09L104.53-15.09 104.92-14.65Q104.92-14.26 105.14-13.75 105.36-13.23 105.56-12.89L105.56-12.89Q105.46-12.4 105.58-12.28 105.7-12.16 105.8-12.06L105.8-12.06Q105.75-11.13 105.85-10.84L105.85-10.84Q105.02-10.11 104.31-9.5 103.6-8.89 103.07-8.3L103.07-8.3Q102.63-7.76 102.16-7.35 101.7-6.93 101.16-6.45L101.16-6.45Q100.87-6.05 100.67-5.91L100.67-5.91Q100.33-5.57 99.99-5.37L99.99-5.37Q99.4-4.83 98.84-4.35 98.28-3.86 97.74-3.37L97.74-3.37Q97.35-3.03 97.01-2.71 96.67-2.39 96.33-2L96.33-2Q96.03-1.71 95.67-1.32 95.3-0.93 94.91-0.68L94.91-0.68Q94.77-0.39 94.52-0.17 94.28 0.05 94.08 0.29L94.08 0.29Q93.74 0.49 93.45 0.68 93.15 0.88 92.76 1.07L92.76 1.07Q92.37 0.78 92.01 0.54 91.64 0.29 91.2 0.2L91.2 0.2Q90.91-0.05 90.76-0.29 90.62-0.54 90.22-0.63L90.22-0.63Q90.13-0.78 90-0.95 89.88-1.12 89.78-1.32L89.78-1.32Q89.2-1.37 88.86-2.05L88.86-2.05Q88.95-2.34 89.13-2.49 89.3-2.64 89.2-3.03L89.2-3.03Q89.49-3.52 89.91-3.88 90.32-4.25 90.71-4.64L90.71-4.64Q91.15-5.03 91.52-5.44 91.88-5.86 92.32-6.25L92.32-6.25Q92.57-6.49 92.81-6.71 93.06-6.93 93.35-7.18L93.35-7.18Q93.89-7.71 94.45-8.18 95.01-8.64 95.6-9.18L95.6-9.18Q96.38-9.96 97.21-10.67 98.04-11.38 98.72-12.26L98.72-12.26Q98.67-12.45 98.57-12.52 98.48-12.6 98.43-12.74L98.43-12.74Q97.65-13.48 96.89-14.18 96.13-14.89 95.25-15.43L95.25-15.43Q94.96-15.72 94.86-15.92L94.86-15.92Q93.98-16.55 93.18-17.33 92.37-18.12 91.4-18.65L91.4-18.65Q91.2-18.9 90.93-19.07 90.66-19.24 90.42-19.38L90.42-19.38Q90.27-19.63 90.1-19.8 89.93-19.97 89.69-20.07L89.69-20.07Q89.3-20.41 89.17-20.63 89.05-20.85 88.76-20.9L88.76-20.9Q88.66-21.14 88.44-21.29 88.22-21.44 87.98-21.63L87.98-21.63Q87.88-21.92 87.69-22.12L87.69-22.12Q87.64-22.51 87.73-22.68 87.83-22.85 87.88-22.95L87.88-22.95Q87.83-23.24 87.61-23.39 87.39-23.54 87.39-23.88L87.39-23.88Q87.39-24.07 87.51-24.15 87.64-24.22 87.69-24.37L87.69-24.37 87.83-25.1Q88.22-25.39 88.49-25.81 88.76-26.22 89.2-26.46L89.2-26.46Q89.69-27.2 90.42-27.69L90.42-27.69Q90.66-28.08 91.03-28.32 91.4-28.56 91.64-28.96L91.64-28.96Q92.03-29.2 92.3-29.49 92.57-29.79 92.96-30.03L92.96-30.03Q93.06-30.22 93.18-30.35 93.3-30.47 93.35-30.62L93.35-30.62Q94.67-31.88 95.67-32.81 96.67-33.74 97.74-34.67L97.74-34.67Q98.04-34.91 98.33-35.21 98.62-35.5 98.96-35.74L98.96-35.74Q99.06-35.84 99.21-35.84 99.36-35.84 99.5-35.94L99.5-35.94Q100.09-35.94 100.14-35.99ZM128.89-36.28L129.38-36.13Q129.97-36.28 130.21-36.25 130.46-36.23 130.7-36.18L130.7-36.18Q130.99-35.99 131.19-35.69L131.19-35.69Q131.19-34.67 131.16-33.67 131.14-32.67 131.14-31.64L131.14-31.64Q131.14-29.79 131.19-27.93 131.24-26.07 131.19-24.22L131.19-24.22Q131.29-23.78 131.24-23.73 131.19-23.68 131.19-23.58L131.19-23.58Q131.19-21.73 131.29-19.92 131.38-18.12 131.38-16.26L131.38-16.26 131.38-9.77Q131.38-7.67 131.51-5.62 131.63-3.56 131.63-1.51L131.63-1.51Q131.63-1.32 131.38-0.98L131.38-0.98Q131.29-0.59 131.09-0.34L131.09-0.34Q130.65-0.29 130.26-0.49L130.26-0.49Q130.07-0.49 129.99-0.37 129.92-0.24 129.77-0.15L129.77-0.15Q129.38-0.15 129.14 0.05 128.89 0.24 128.55 0.24L128.55 0.24Q128.26 0.24 127.99 0.17 127.72 0.1 127.38 0.1L127.38 0.1Q127.28 0.1 127.09 0.27 126.89 0.44 126.79 0.49L126.79 0.49Q126.55 0.49 126.35 0.56 126.16 0.63 125.92 0.63L125.92 0.63Q125.67 0.44 125.7 0.05 125.72-0.34 125.38-0.44L125.38-0.44Q125.38-0.68 125.4-0.98 125.43-1.27 125.43-1.56L125.43-1.56Q125.43-3.47 125.33-5.4 125.23-7.32 125.18-9.23L125.18-9.23Q125.13-10.06 125.16-10.86 125.18-11.67 125.18-12.5L125.18-12.5Q125.18-12.94 125.18-13.38 125.18-13.82 125.09-14.21L125.09-14.21Q124.79-14.26 124.57-14.14 124.35-14.01 124.11-14.01L124.11-14.01Q123.08-13.67 122.74-13.33L122.74-13.33Q122.45-13.33 122.25-13.23 122.06-13.13 121.81-13.04L121.81-13.04Q121.42-12.94 121.06-12.87 120.69-12.79 120.3-12.65L120.3-12.65Q120.06-12.55 119.81-12.45 119.57-12.35 119.32-12.26L119.32-12.26Q118.79-12.06 118.25-11.89 117.71-11.72 117.18-11.52L117.18-11.52Q116.64-11.43 116.25-11.23 115.86-11.04 115.47-10.84L115.47-10.84Q115.12-8.54 115.1-6.47 115.08-4.39 115.22-2.34L115.22-2.34Q115.12-2.05 115.12-1.68 115.12-1.32 114.98-1.07L114.98-1.07Q114.44-0.93 114.27-1.05 114.1-1.17 113.9-1.27L113.9-1.27Q113.71-1.22 113.59-1.07 113.46-0.93 113.37-0.83L113.37-0.83Q112.98-0.83 112.76-0.66 112.54-0.49 112.34-0.39L112.34-0.39Q112.19-0.34 112.05-0.39 111.9-0.44 111.71-0.34L111.71-0.34Q111.22-0.34 111.24-0.46 111.27-0.59 111.12-0.59L111.12-0.59Q110.93-0.59 110.85-0.42 110.78-0.24 110.58-0.15L110.58-0.15Q110.39-0.05 110.14-0.02 109.9 0 109.66 0.1L109.66 0.1Q109.41-0.15 109.41-0.44 109.41-0.73 109.17-0.98L109.17-0.98Q109.07-1.66 109.05-2.32 109.02-2.98 108.87-3.66L108.87-3.66Q108.97-5.03 108.95-5.86 108.92-6.69 108.92-7.57L108.92-7.57Q108.92-8.35 108.87-9.13 108.83-9.91 108.78-10.69L108.78-10.69Q108.68-12.11 108.61-13.57 108.53-15.04 108.53-16.5L108.53-16.5Q108.53-17.72 108.65-18.9 108.78-20.07 108.78-21.29L108.78-21.29Q108.78-22.12 108.8-22.92 108.83-23.73 108.83-24.56L108.83-24.56Q108.83-25.24 108.8-25.9 108.78-26.56 108.78-27.2L108.78-27.2Q108.78-27.93 108.87-28.64 108.97-29.35 108.97-30.03L108.97-30.03Q108.97-30.86 108.87-31.67 108.78-32.47 108.78-33.3L108.78-33.3Q108.78-33.54 108.83-33.76 108.87-33.98 108.87-34.23L108.87-34.23Q108.83-34.77 108.92-34.89 109.02-35.01 109.12-35.21L109.12-35.21Q109.36-35.25 109.66-35.35 109.95-35.45 110.19-35.35L110.19-35.35Q110.49-35.64 111-35.64 111.51-35.64 111.76-35.99L111.76-35.99Q112.1-35.94 112.22-35.96 112.34-35.99 112.44-35.99L112.44-35.99Q112.88-35.89 112.9-36.01 112.93-36.13 113.07-36.13L113.07-36.13Q113.32-36.13 113.83-36.11 114.34-36.08 114.54-35.89L114.54-35.89Q115.03-33.3 115.08-30.62 115.12-27.93 115.12-25.29L115.12-25.29Q115.12-24.61 115.17-23.9 115.22-23.19 115.12-22.51L115.12-22.51Q115.12-22.22 115.08-21.95 115.03-21.68 115.03-21.39L115.03-21.39Q115.03-20.56 114.93-19.65 114.83-18.75 114.83-17.92L114.83-17.92Q115.42-17.58 115.83-17.7 116.25-17.82 116.64-17.97L116.64-17.97Q117.13-18.12 117.54-18.29 117.96-18.46 118.4-18.6L118.4-18.6Q118.79-18.8 119.25-18.92 119.71-19.04 120.1-19.14L120.1-19.14Q121.37-19.58 122.59-20.21 123.82-20.85 125.09-21.24L125.09-21.24Q124.99-23.93 124.99-26.59 124.99-29.25 124.99-31.88L124.99-31.88Q124.99-32.62 124.99-33.4 124.99-34.18 125.09-34.91L125.09-34.91Q125.13-35.11 125.21-35.23 125.28-35.35 125.28-35.6L125.28-35.6Q125.43-35.84 125.62-35.94 125.82-36.04 125.92-36.23L125.92-36.23Q126.01-36.13 126.13-36.06 126.26-35.99 126.4-35.94L126.4-35.94Q126.79-36.04 126.87-36.08 126.94-36.13 127.04-36.18L127.04-36.18Q127.28-36.28 127.67-36.28 128.06-36.28 128.31-36.28L128.31-36.28 128.89-36.28Z" opacity="1" transform="matrix(1,0,0,1,0,0)" fill="#843ef0" class="undefined-text-0" data-fill-palette-color="primary" id="text-0"></path></svg></g></svg></g></svg></g></svg></g></svg></g></svg></g></svg></g></svg></g><defs></defs></svg><rect width="320" height="360" fill="none" stroke="none" visibility="hidden"></rect></g></svg></g></svg>